<svg width="27" height="22" viewBox="0 0 27 22" fill="none" xmlns="http://www.w3.org/2000/svg">
<path d="M25.7212 1.01121C24.6538 1.76409 23.472 2.33993 22.2213 2.71654C21.5501 1.9447 20.6579 1.39763 19.6656 1.14934C18.6733 0.901042 17.6286 0.963498 16.673 1.32826C15.7173 1.69302 14.8967 2.34249 14.3222 3.18882C13.7476 4.03515 13.4469 5.03751 13.4606 6.06034V7.17494C11.5018 7.22573 9.56092 6.79131 7.81071 5.91037C6.06049 5.02942 4.55531 3.72931 3.42921 2.12581C3.42921 2.12581 -1.02918 12.1572 9.0022 16.6156C6.70672 18.1738 3.97219 18.9551 1.20001 18.8448C11.2314 24.4178 23.492 18.8448 23.492 6.0269C23.491 5.71643 23.4611 5.40673 23.4028 5.10178C24.5404 3.97993 25.3431 2.56352 25.7212 1.01121V1.01121Z" stroke="#3E3E3E" stroke-width="2" stroke-linecap="round" stroke-linejoin="round"/>
</svg>
