<svg width="28" height="26" viewBox="0 0 28 26" fill="none" xmlns="http://www.w3.org/2000/svg">
<path d="M6.67812 9.8421H1.62549V25H6.67812V9.8421Z" stroke="#3E3E3E" stroke-width="2" stroke-linecap="round" stroke-linejoin="round"/>
<path d="M19.3097 8.57895C21.3198 8.57895 23.2475 9.37744 24.6688 10.7988C26.0901 12.2201 26.8886 14.1478 26.8886 16.1579V25H21.836V16.1579C21.836 15.4879 21.5698 14.8453 21.0961 14.3715C20.6223 13.8977 19.9797 13.6316 19.3097 13.6316C18.6397 13.6316 17.9971 13.8977 17.5233 14.3715C17.0495 14.8453 16.7834 15.4879 16.7834 16.1579V25H11.7307V16.1579C11.7307 14.1478 12.5292 12.2201 13.9506 10.7988C15.3719 9.37744 17.2996 8.57895 19.3097 8.57895V8.57895Z" stroke="#3E3E3E" stroke-width="2" stroke-linecap="round" stroke-linejoin="round"/>
<path d="M4.1518 6.05263C5.54705 6.05263 6.67812 4.92156 6.67812 3.52632C6.67812 2.13107 5.54705 1 4.1518 1C2.75656 1 1.62549 2.13107 1.62549 3.52632C1.62549 4.92156 2.75656 6.05263 4.1518 6.05263Z" stroke="#3E3E3E" stroke-width="2" stroke-linecap="round" stroke-linejoin="round"/>
</svg>
