<svg width="27" height="26" viewBox="0 0 27 26" fill="none" xmlns="http://www.w3.org/2000/svg">
<path d="M19.2 1H7.20001C3.8863 1 1.20001 3.68629 1.20001 7V19C1.20001 22.3137 3.8863 25 7.20001 25H19.2C22.5137 25 25.2 22.3137 25.2 19V7C25.2 3.68629 22.5137 1 19.2 1Z" stroke="#3E3E3E" stroke-width="2" stroke-linecap="round" stroke-linejoin="round"/>
<path d="M18 12.244C18.1481 13.2427 17.9775 14.2627 17.5125 15.1588C17.0475 16.055 16.3118 16.7817 15.41 17.2356C14.5081 17.6895 13.4862 17.8475 12.4894 17.6871C11.4926 17.5267 10.5717 17.0561 9.85783 16.3422C9.14392 15.6283 8.6733 14.7074 8.5129 13.7107C8.3525 12.7139 8.5105 11.6919 8.96441 10.79C9.41833 9.88822 10.145 9.15248 11.0412 8.68749C11.9374 8.22249 12.9573 8.0519 13.956 8.2C14.9747 8.35106 15.9178 8.82575 16.6461 9.55396C17.3743 10.2822 17.849 11.2253 18 12.244Z" stroke="#3E3E3E" stroke-width="2" stroke-linecap="round" stroke-linejoin="round"/>
<path d="M19.8 6.39999H19.812" stroke="#3E3E3E" stroke-width="2" stroke-linecap="round" stroke-linejoin="round"/>
</svg>
