<svg width="126" height="50" viewBox="0 0 126 50" fill="none" xmlns="http://www.w3.org/2000/svg">
<path d="M7.02159 34.1663V48.9897H3.02318V37.287H0V34.0688H7.02159V34.1663Z" fill="#FF5A60"/>
<path d="M21.1624 41.578C21.1624 46.4541 19.0169 49.0872 15.1161 49.0872C11.1177 49.0872 8.97217 46.3566 8.97217 41.578C8.97217 36.7019 11.1177 34.0688 15.1161 34.0688C18.9194 34.0688 21.1624 36.7994 21.1624 41.578ZM12.8731 41.578C12.8731 44.9913 13.5557 46.3566 15.1161 46.3566C16.6764 46.3566 17.3591 44.8937 17.3591 41.578C17.3591 38.1647 16.6764 36.7994 15.1161 36.7994C13.4582 36.7994 12.8731 38.1647 12.8731 41.578Z" fill="#FF5A60"/>
<path d="M33.9376 41.578C33.9376 46.4541 31.7921 49.0872 27.8912 49.0872C23.8928 49.0872 21.7473 46.3566 21.7473 41.578C21.7473 36.7019 23.8928 34.0688 27.8912 34.0688C31.7921 34.0688 33.9376 36.7994 33.9376 41.578ZM25.6482 41.578C25.6482 44.9913 26.3309 46.3566 27.8912 46.3566C29.4516 46.3566 30.1342 44.8937 30.1342 41.578C30.1342 38.1647 29.4516 36.7994 27.8912 36.7994C26.3309 36.7994 25.6482 38.1647 25.6482 41.578Z" fill="#FF5A60"/>
<path d="M41.2514 34.166V45.6736H47.1027V48.9893H37.6431V34.166H41.2514Z" fill="#3E3E3E"/>
<path d="M59.8786 41.5787V48.9904H55.9777V47.7226C55.1975 48.6979 53.9297 49.1855 52.3694 49.1855C49.8338 49.1855 48.2734 47.7226 48.2734 45.5772C48.2734 43.4317 49.9313 42.1639 52.857 42.0664H55.9777V41.9688C55.9777 40.8961 55.1975 40.2134 53.7347 40.2134C52.7595 40.2134 51.3941 40.506 50.1264 41.0911L49.0536 38.5556C50.9065 37.7754 52.6619 37.2878 54.6124 37.2878C57.9281 37.4828 59.8786 38.9457 59.8786 41.5787ZM55.9777 45.1871V44.2118H53.6372C52.5644 44.2118 51.9793 44.6019 51.9793 45.3821C51.9793 46.1623 52.5644 46.6499 53.6372 46.6499C54.8074 46.6499 55.7826 46.0648 55.9777 45.1871Z" fill="#3E3E3E"/>
<path d="M73.8241 33.3869V49.088H69.8257V47.6251C69.0455 48.6979 67.7777 49.283 66.3149 49.283C62.9016 49.283 60.7561 46.9425 60.7561 43.3342C60.7561 39.8234 62.9991 37.5804 66.3149 37.5804C67.8752 37.5804 69.143 38.1655 69.9232 39.2382V33.4844H73.8241V33.3869ZM69.8257 43.3342C69.8257 41.5788 68.7529 40.506 67.2901 40.506C65.7297 40.506 64.657 41.6763 64.657 43.3342C64.657 44.992 65.7297 46.1623 67.2901 46.1623C68.8504 46.2598 69.8257 45.0895 69.8257 43.3342Z" fill="#3E3E3E"/>
<path d="M83.8689 37.4821V40.8953C81.6259 40.7003 80.1631 41.578 79.968 43.2359V49.0872H76.0671V37.5796H80.0655V39.53C80.8457 38.1647 82.211 37.4821 83.8689 37.4821Z" fill="#3E3E3E"/>
<path d="M88.843 34.3625C88.843 35.5328 87.9653 36.4105 86.795 36.4105C85.5272 36.4105 84.7471 35.6303 84.7471 34.3625C84.7471 33.1922 85.6248 32.3145 86.795 32.3145C87.9653 32.3145 88.843 33.1922 88.843 34.3625ZM88.648 37.5807V48.9908H84.7471V37.5807H88.648Z" fill="#3E3E3E"/>
<path d="M94.8893 33.3869V49.088H90.8909V33.3869H94.8893Z" fill="#3E3E3E"/>
<path d="M101.13 33.3869V49.088H97.1316V33.3869H101.13Z" fill="#3E3E3E"/>
<path d="M115.563 43.3334C115.563 46.8442 112.93 49.1847 109.029 49.1847C105.031 49.1847 102.495 46.8442 102.495 43.3334C102.495 39.8226 105.128 37.4821 109.029 37.4821C112.93 37.4821 115.563 39.8226 115.563 43.3334ZM106.396 43.3334C106.396 44.9913 107.469 46.1615 108.932 46.1615C110.492 46.1615 111.565 44.9913 111.565 43.3334C111.565 41.578 110.492 40.5052 108.932 40.5052C107.469 40.5052 106.396 41.6755 106.396 43.3334Z" fill="#3E3E3E"/>
<path d="M120.928 40.018C120.245 40.018 119.758 40.2131 119.758 40.7007C119.758 42.1635 126.096 41.4808 125.999 45.4792C125.999 47.8198 123.853 49.1851 120.928 49.1851C118.88 49.1851 116.929 48.6 115.467 47.5272L116.734 45.0892C118.1 45.9669 119.66 46.552 121.025 46.552C121.805 46.552 122.293 46.3569 122.293 45.8693C122.293 44.309 116.052 45.0892 116.052 41.0908C116.052 38.6527 118.197 37.3849 121.025 37.3849C122.781 37.3849 124.536 37.8725 125.999 38.7502L124.634 41.1883C123.268 40.5056 121.903 40.018 120.928 40.018Z" fill="#3E3E3E"/>
<path d="M84.3567 21.0991C84.3567 16.223 84.3567 11.3469 84.3567 6.47081C84.3567 5.00798 84.3567 3.44763 84.3567 1.9848C84.3567 1.78975 84.3567 1.69223 84.2592 1.49719C84.1617 1.30214 84.0641 1.20462 83.8691 1.1071C83.7716 1.00958 83.5765 1.00958 83.479 1.00958C81.8211 1.00958 80.1632 1.00958 78.5054 1.00958C77.5302 1.00958 75.8723 0.717011 75.0921 1.39966C73.3367 3.15506 71.7764 5.00798 70.1185 6.8609C70.1185 6.08072 70.1185 5.20303 70.1185 4.42285C70.1185 3.54515 70.1185 2.76497 70.1185 1.88728C70.1185 1.69223 70.1185 1.59471 70.021 1.39966C69.9234 1.20462 69.8259 1.1071 69.6309 1.00958C69.5333 0.912055 69.3383 0.912055 69.2408 0.912055C67.5829 0.912055 65.925 0.912055 64.2672 0.912055C63.2919 0.912055 61.6341 0.619488 60.8539 1.30214C59.196 3.05754 57.5381 4.81294 55.9778 6.66586C55.9778 5.88568 55.9778 5.1055 55.9778 4.32533C55.9778 3.44763 55.9778 2.56993 55.9778 1.59471C55.9778 1.20462 55.6852 0.912055 55.3926 0.912055C55.2951 0.814533 55.1976 0.814533 55.1001 0.814533C53.5397 0.814533 51.9794 0.814533 50.3215 0.814533C49.3463 0.814533 47.4934 0.424444 46.7132 1.20462C44.4702 3.44763 42.5197 5.88568 40.3742 8.22621C40.3742 8.22621 40.3742 8.22621 40.3742 8.32373C40.2767 8.42125 40.1792 8.6163 40.1792 8.81134C40.1792 14.3701 40.1792 19.9289 40.1792 25.3901C40.1792 26.1703 40.1792 26.9504 40.1792 27.7306C40.1792 28.4133 41.0569 28.8034 41.5445 28.3158C43.885 26.0728 46.128 23.8297 48.4686 21.5867C48.4686 22.952 48.4686 24.2198 48.4686 25.5851C48.4686 26.3653 48.4686 27.243 48.4686 28.0232C48.4686 28.4133 48.8587 28.8034 49.2488 28.8034C51.1992 28.8034 53.1496 28.8034 55.0026 28.8034C55.1976 28.8034 55.4902 28.8034 55.6852 28.6083C58.0257 26.2678 60.2687 24.0248 62.6093 21.6843C62.6093 22.952 62.6093 24.3174 62.6093 25.5851C62.6093 26.3653 62.6093 27.243 62.6093 28.0232C62.6093 28.4133 62.9994 28.8034 63.3895 28.8034C65.3399 28.8034 67.1928 28.8034 69.1433 28.8034C69.3383 28.8034 69.6309 28.8034 69.8259 28.6083C72.1664 26.2678 74.507 23.9273 76.8475 21.5867C76.8475 22.952 76.8475 24.3174 76.8475 25.5851C76.8475 26.3653 76.8475 27.243 76.8475 28.0232C76.8475 28.7058 77.7252 29.0959 78.2128 28.6083C79.6756 27.048 81.236 25.4876 82.6988 23.9273C83.1864 23.4397 84.0641 22.757 84.2592 22.0743C84.3567 21.7818 84.3567 21.3917 84.3567 21.0991ZM82.6988 21.7818C81.3335 23.2446 79.9682 24.6099 78.5054 26.0727C78.5054 21.1966 78.5054 16.3205 78.5054 11.3469C78.5054 10.6643 78.5054 9.88409 78.5054 9.20143C79.9682 7.54356 81.3335 5.78816 82.6988 4.03276C82.6988 9.20143 82.6988 14.3701 82.6988 19.4412C82.6988 20.2214 82.6988 21.0016 82.6988 21.7818ZM76.2624 2.47241C78.1153 2.47241 79.9682 2.47241 81.9186 2.47241C80.3583 4.32533 78.8955 6.27577 77.3351 8.12869C75.2871 8.12869 73.1417 8.12869 71.0937 8.12869C72.7516 6.27577 74.507 4.32533 76.2624 2.47241ZM64.2672 11.3469C64.2672 10.6643 64.2672 9.88409 64.2672 9.20143C65.73 7.54356 67.0953 5.78816 68.4606 4.03276C68.4606 5.69064 68.4606 7.25099 68.4606 8.90886C68.4606 12.7122 68.4606 26.6579 68.4606 27.243C67.0953 27.243 65.73 27.243 64.2672 27.243C64.2672 21.9768 64.2672 16.6131 64.2672 11.3469ZM62.0241 2.47241C63.8771 2.47241 65.73 2.47241 67.6804 2.47241C66.1201 4.32533 64.6572 6.27577 63.0969 8.12869C61.0489 8.12869 58.9034 8.12869 56.8555 8.12869C58.6109 6.27577 60.2687 4.32533 62.0241 2.47241ZM50.1265 11.2494C50.1265 10.5667 50.1265 9.78656 50.1265 9.10391C51.6868 7.44603 53.0521 5.69064 54.4174 3.83772C54.4174 5.39807 54.4174 26.6579 54.4174 27.243C53.0521 27.243 51.5893 27.243 50.224 27.243C50.1264 21.8793 50.1265 16.6131 50.1265 11.2494ZM47.8834 2.47241C49.7364 2.47241 51.5893 2.47241 53.4422 2.47241C51.9794 4.32533 50.419 6.17825 48.9562 8.03117C46.9082 8.03117 44.8603 8.03117 42.8123 8.03117C44.4702 6.17825 46.2256 4.32533 47.8834 2.47241ZM41.8371 25.8777C41.8371 21.0016 41.8371 16.028 41.8371 11.1519C41.8371 10.6643 41.8371 10.0791 41.8371 9.59152C43.2024 9.59152 44.4702 9.59152 45.8355 9.59152C46.7132 9.59152 47.5909 9.59152 48.5661 9.59152C48.5661 12.8097 48.5661 16.1255 48.5661 19.3437C46.3231 21.5867 44.0801 23.7322 41.8371 25.8777ZM55.9778 26.0727C55.9778 25.0975 55.9778 24.1223 55.9778 23.1471C55.9778 19.2462 55.9778 15.2478 55.9778 11.3469C55.9778 10.7618 55.9778 10.2742 55.9778 9.68904C57.2456 9.68904 58.6109 9.68904 59.8787 9.68904C60.7564 9.68904 61.7316 9.68904 62.6093 9.68904C62.6093 12.9073 62.6093 16.1255 62.6093 19.3437C60.4638 21.6843 58.2208 23.8297 55.9778 26.0727ZM70.1185 26.0727C70.1185 25.0975 70.1185 24.1223 70.1185 23.1471C70.1185 19.2462 70.1185 15.2478 70.1185 11.3469C70.1185 10.7618 70.1185 10.2742 70.1185 9.68904C71.4838 9.68904 72.8491 9.68904 74.1169 9.68904C74.9946 9.68904 75.9698 9.68904 76.8475 9.68904C76.8475 12.9073 76.8475 16.1255 76.8475 19.3437C74.6045 21.5867 72.3615 23.8297 70.1185 26.0727Z" fill="#FF5A60"/>
</svg>
